<svg xmlns="http://www.w3.org/2000/svg" width="31.336" height="34" viewBox="0 0 31.336 34">
  <g id="favicon" transform="translate(6682 19864)">
    <path id="Path_1653" data-name="Path 1653" d="M4.452,0h22.58a4.289,4.289,0,0,1,4.305,4.274h0V23.126a3.322,3.322,0,0,1-1.593,2.833L17.394,33.513a3.306,3.306,0,0,1-3.445,0L1.662,26.018a3.437,3.437,0,0,1-1.651-2.93L0,4.42A4.437,4.437,0,0,1,4.45,0Z" transform="translate(-6682 -19863.996)" fill="#005af4"/>
    <g id="Group_14732" data-name="Group 14732" transform="translate(-6672.387 -19857.092)">
      <path id="Path_27268" data-name="Path 27268" d="M29.257,19.711A1.112,1.112,0,0,1,28.141,18.6h0V14.965h-5.7a1.749,1.749,0,0,0-1.753,1.74V29.426a1.749,1.749,0,0,0,1.753,1.74H31.36a1.749,1.749,0,0,0,1.753-1.74V19.711ZM23.3,26.357h2.317a.475.475,0,0,1,0,.949H23.3a.475.475,0,1,1-.03-.949ZM22.819,24.3a.477.477,0,0,1,.478-.474h7.011a.475.475,0,0,1,0,.949H23.3A.477.477,0,0,1,22.819,24.3Zm7.489-3.006a.475.475,0,0,1,0,.949H23.3a.475.475,0,1,1-.03-.949h7.041Z" transform="translate(-20.684 -14.965)" fill="#fff"/>
      <path id="Path_27269" data-name="Path 27269" d="M38.786,18.834a.159.159,0,0,0,.159.158h3.643a1.736,1.736,0,0,0-.335-.435L39.18,15.671a1.759,1.759,0,0,0-.394-.279Z" transform="translate(-30.373 -15.195)" fill="#fff"/>
    </g>
  </g>
</svg>
